<?xml version="1.0" encoding="UTF-8"?><svg xmlns="http://www.w3.org/2000/svg" viewBox="0 0 48.65 58"><defs><style>.e{fill:none;stroke:#fff;stroke-linecap:round;stroke-linejoin:round;stroke-width:2px;}</style></defs><g id="a"/><g id="b"><g id="c"><g id="d"><rect class="e" x="19.49" y="53.19" width="11.52" height="3.81" rx="1.9" ry="1.9"/><path class="e" d="M19.49,55.1c-14.16,0-14.61-12.42-14.61-12.42v-4.38"/><path class="e" d="M20.27,37.91c.51,1.02,2.13,1.76,4.05,1.76s3.55-.75,4.06-1.77"/><path class="e" d="M2.31,23.92C2.75,10.39,12.45,1,24.32,1s21.57,9.38,22.01,22.92"/><path class="e" d="M42.45,23.9c0-.17,0-.33,0-.5-.32-11.44-8.31-17.22-18.12-17.22-8.44,0-15.53,4.26-17.56,12.73-.38,1.63-.58,3.3-.58,4.98"/><path class="e" d="M40.42,37.9c-3.31,6-9.76,11.5-16.09,11.5-4.75,0-9.57-3.08-13.08-7.16-1.16-1.33-2.17-2.79-3.02-4.33"/><path class="e" d="M42.45,23.4l-4.9-3.45c-4.11-2.9-9.66-2.67-13.51,.57h0c-1.99,1.68-4.52,2.6-7.12,2.6h-.7c-2.26,0-4.47-.69-6.33-1.99l-3.12-2.22"/><path class="e" d="M34.25,30.5c0-1.75-1.41-3.17-3.16-3.17-1.75,0-3.17,1.41-3.17,3.16,0,0,0,0,0,.01"/><path class="e" d="M20.3,30.5c0-1.75-1.42-3.17-3.17-3.17s-3.17,1.42-3.17,3.17h0"/><rect class="e" x="39.87" y="23.9" width="7.78" height="14.4" rx="1.81" ry="1.81"/><rect class="e" x="1" y="23.9" width="7.78" height="14.4" rx="1.81" ry="1.81"/></g></g></g></svg>