<?xml version="1.0" encoding="UTF-8"?><svg xmlns="http://www.w3.org/2000/svg" viewBox="0 0 58 58"><defs><style>.e{fill:none;stroke:#fff;stroke-linecap:round;stroke-linejoin:round;stroke-width:2px;}</style></defs><g id="a"/><g id="b"><g id="c"><g id="d"><ellipse class="e" cx="29" cy="5.63" rx="4.86" ry="4.63"/><path class="e" d="M42.25,15.6c-3.67-3.5-8.79-2.4-11.46-1.46-1.16,.41-2.42,.41-3.57,0-2.67-.94-7.79-2.04-11.46,1.46-5.18,4.94-14.75,6.93-14.75,6.93,0,0,.86,4.38,28,4.38s28-4.38,28-4.38c0,0-9.56-1.99-14.75-6.93Z"/><line class="e" x1="29" y1="57" x2="29" y2="10.26"/><path class="e" d="M32.99,26.91l-6.86,3.97c-.9,.5-1.23,1.63-.73,2.54,.2,.35,.5,.63,.87,.8l5.15,2.47c.94,.42,1.36,1.53,.94,2.47-.16,.36-.44,.66-.78,.86l-5.56,3.3c-.9,.51-1.21,1.65-.7,2.54,.19,.34,.48,.6,.83,.77l5.73,2.87c.93,.44,1.33,1.54,.9,2.48-.13,.28-.33,.52-.58,.71l-3.19,2.41"/><line class="e" x1="11.92" y1="25.81" x2="15" y2="21.92"/><line class="e" x1="19.51" y1="26.44" x2="21.62" y2="22.52"/><line class="e" x1="46.3" y1="25.77" x2="43.22" y2="21.88"/><line class="e" x1="38.73" y1="26.42" x2="36.62" y2="22.5"/></g></g></g></svg>