<?xml version="1.0" encoding="UTF-8"?><svg xmlns="http://www.w3.org/2000/svg" viewBox="0 0 55.54 58"><defs><style>.e{fill:none;stroke:#fff;stroke-linecap:round;stroke-linejoin:round;stroke-width:2px;}</style></defs><g id="a"/><g id="b"><g id="c"><g id="d"><path class="e" d="M27.77,57c16.16-8.44,26.78-28.52,26.78-51.93,0-1.36-.04-2.73-.11-4.07-4.02,2.99-8.91,4.57-13.92,4.5-4.59,.06-9.1-1.26-12.94-3.79-3.84,2.53-8.35,3.85-12.95,3.79-4.85,.06-9.59-1.41-13.54-4.21-.06,1.25-.09,2.51-.09,3.78,0,23.41,10.62,43.48,26.77,51.93Z"/><path class="e" d="M25.64,35.61c0-1.14,.91-2.07,2.05-2.07,1.14,0,2.07,.91,2.07,2.05,0,0,0,.02,0,.02,.12,5.29,1.72,9.47,3.68,9.47s3.68-4.52,3.68-10.09c0-.98-.05-1.96-.16-2.94-.14-1.34,.27-2.69,1.13-3.73,1.66-2.13,2.53-4.76,2.49-7.46,0-5.69-3.59-10.3-8.02-10.3-.95,0-1.89,.21-2.74,.62-1.25,.59-2.7,.59-3.96,0-.86-.41-1.79-.62-2.74-.62-4.43,0-8.02,4.61-8.02,10.3-.04,2.61,.78,5.15,2.32,7.25,.82,1.03,1.19,2.35,1.05,3.66-.13,1.07-.19,2.14-.19,3.22,0,5.58,1.65,10.09,3.68,10.09,1.95,0,3.56-4.18,3.68-9.47Z"/><path class="e" d="M36.29,19.27c-.66-1.69-1.79-3.15-3.26-4.22"/></g></g></g></svg>