<?xml version="1.0" encoding="UTF-8"?><svg xmlns="http://www.w3.org/2000/svg" viewBox="0 0 58 58"><defs><style>.e{fill:none;stroke:#fff;stroke-linecap:round;stroke-linejoin:round;stroke-width:2px;}</style></defs><g id="a"/><g id="b"><g id="c"><g id="d"><path class="e" d="M1,42.38v8.82c.04,3.24,2.71,5.84,5.95,5.81H51.03c3.25,.04,5.92-2.56,5.97-5.81v-9.83c0,3.9-3.14,8.08-7.01,8.08-2.71,0-5.06-.61-6.22-2.31-.18-.27-.48-.43-.8-.42-.3,.01-.58,.17-.75,.42-1.17,1.71-3.52,2.31-6.23,2.31s-5.06-.61-6.22-2.31c-.29-.43-.87-.54-1.29-.26-.1,.07-.19,.16-.26,.26-1.17,1.71-3.52,2.31-6.23,2.31s-5.06-.61-6.22-2.31c-.17-.25-.45-.41-.75-.42-.32,0-.62,.15-.8,.42-1.17,1.71-3.52,2.31-6.23,2.31-3.88-.02-7.01-3.19-6.99-7.07Z"/><path class="e" d="M42.97,33.5v13.21c.32,0,.62,.15,.8,.42,1.16,1.71,3.51,2.31,6.22,2.31,3.87,0,7.01-4.18,7.01-8.08v-7.87h-14.03Z"/><path class="e" d="M29,33.5v13.22c.31,0,.6,.16,.77,.41,1.16,1.71,3.51,2.31,6.22,2.31s5.06-.61,6.23-2.31c.17-.25,.45-.41,.75-.42v-13.21h-13.97Z"/><path class="e" d="M15.02,33.5v13.21c.3,.01,.58,.17,.75,.42,1.16,1.71,3.51,2.31,6.22,2.31s5.06-.61,6.23-2.31c.17-.26,.47-.42,.78-.41v-13.22H15.02Z"/><path class="e" d="M1,33.5v8.88c-.02,3.88,3.11,7.04,6.99,7.07,2.71,0,5.06-.61,6.23-2.31,.18-.27,.48-.43,.8-.42v-13.21H1Z"/><path class="e" d="M43.64,1h-6.17c-.55,0-1,.45-1,1V7.29c0,.26,.1,.52,.29,.7l3.97,4.01,3.62-3.65c.19-.19,.29-.44,.29-.7V2c0-.55-.45-1-1-1Z"/><line class="e" x1="40.74" y1="12.01" x2="40.74" y2="16.73"/><path class="e" d="M5.37,4.9l5.31,.25c4.75,.23,9.51-.05,14.2-.82l11.59-1.9"/><path class="e" d="M5.37,13.71h0c8.23,0,16.4-1.5,24.1-4.42l7.01-2.66"/><line class="e" x1="24.08" y1="4.46" x2="24.08" y2="11.07"/><path class="e" d="M37.54,16.73h6.39c.42,0,.8,.27,.94,.67l2.36,6.71c.37,1.04-.18,2.18-1.22,2.55-.21,.08-.44,.11-.66,.11h-9.23c-1.1,0-2-.9-2-2,0-.23,.04-.45,.11-.66l2.36-6.71c.14-.4,.52-.67,.94-.67Z"/></g></g></g></svg>