<?xml version="1.0" encoding="UTF-8"?><svg xmlns="http://www.w3.org/2000/svg" viewBox="0 0 58 43.84"><defs><style>.e{fill:none;stroke:#fff;stroke-linecap:round;stroke-linejoin:round;stroke-width:2px;}</style></defs><g id="a"/><g id="b"><g id="c"><g id="d"><path class="e" d="M20.33,23.89v3.42c0,1.09-.89,1.98-1.98,1.98h-3.2c-1.09,0-1.98-.89-1.98-1.98h0v-2.45"/><path class="e" d="M20.33,23.89v3.42c0,1.09,.89,1.98,1.98,1.98h3.17c1.09,0,1.98-.89,1.98-1.98v-3.8"/><path class="e" d="M27.46,23.51v3.8c0,1.09,.89,1.98,1.98,1.98h3.17c1.09,0,1.98-.89,1.98-1.98h0v-3.49"/><path class="e" d="M41.74,24.73v2.58c0,1.09-.89,1.98-1.98,1.98h-3.2c-1.09,0-1.98-.89-1.98-1.98v-3.49"/><path class="e" d="M1,28.39c6.8-3.13,17.95-4.87,26.85-4.87s20.06,1.74,26.86,4.87c-6.8,3.12-17.96,5.04-26.86,5.04S7.8,31.51,1,28.39Z"/><path class="e" d="M44.38,18.75c3.68,2.29,6.92,5.23,9.57,8.66,.27,.33,.51,.65,.75,.98-.28,.38-.55,.73-.83,1.1-6.52,8.21-15.76,13.36-26.02,13.36S8.34,37.7,1.84,29.47c-.28-.36-.55-.72-.83-1.09,.24-.33,.47-.65,.73-.98,5.43-6.92,12.79-11.66,21.06-13.06,.65-.09,1.3,.16,1.73,.65,1.99,2.17,5.36,2.32,7.53,.33,.06-.06,.13-.12,.19-.18,.45-.48,1.1-.7,1.75-.59,2.29,.47,4.52,1.2,6.65,2.17"/><polygon class="e" points="46.43 17.67 39.9 21.11 41.14 13.83 35.86 8.68 43.16 7.62 46.43 1 49.69 7.62 57 8.68 51.71 13.83 52.96 21.11 46.43 17.67"/></g></g></g></svg>