<?xml version="1.0" encoding="UTF-8"?><svg xmlns="http://www.w3.org/2000/svg" viewBox="0 0 58 41.86"><defs><style>.e{fill:none;stroke:#fff;stroke-linecap:round;stroke-linejoin:round;stroke-width:2px;}</style></defs><g id="a"/><g id="b"><g id="c"><g id="d"><path class="e" d="M8.04,28.57c0-.76,.61-1.38,1.37-1.39,.76,0,1.38,.61,1.39,1.37,0,0,0,.01,0,.02,.08,3.53,1.15,6.33,2.46,6.33s2.46-3.02,2.46-6.74c0-.66-.03-1.31-.11-1.96-.09-.9,.18-1.8,.75-2.49,1.11-1.42,1.69-3.18,1.66-4.98,0-3.8-2.4-6.88-5.36-6.88-.63,0-1.26,.14-1.83,.41-.84,.39-1.81,.39-2.64,0-.57-.27-1.2-.41-1.83-.41-2.96,0-5.36,3.08-5.36,6.88-.03,1.74,.52,3.44,1.55,4.84,.55,.69,.8,1.57,.7,2.44-.09,.71-.13,1.43-.13,2.15,0,3.72,1.1,6.74,2.46,6.74,1.31,0,2.38-2.79,2.46-6.33Z"/><path class="e" d="M47.02,28.57c0-.76,.61-1.38,1.37-1.39,.76,0,1.38,.61,1.39,1.37,0,0,0,.01,0,.02,.08,3.53,1.15,6.33,2.46,6.33s2.46-3.02,2.46-6.74c0-.66-.03-1.31-.11-1.96-.09-.9,.18-1.8,.75-2.49,1.11-1.42,1.69-3.18,1.66-4.98,0-3.8-2.4-6.88-5.36-6.88-.63,0-1.26,.14-1.83,.41-.84,.39-1.81,.39-2.64,0-.57-.27-1.2-.41-1.83-.41-2.96,0-5.36,3.08-5.36,6.88-.03,1.74,.52,3.44,1.55,4.84,.55,.69,.8,1.57,.7,2.44-.09,.71-.13,1.43-.13,2.15,0,3.72,1.1,6.74,2.46,6.74s2.38-2.79,2.46-6.33Z"/><path class="e" d="M21.48,14.08c-1.17-1.59-1.81-3.52-1.81-5.5,0-4.19,2.65-7.59,5.91-7.59,.7,0,1.39,.16,2.02,.46,.92,.43,1.99,.43,2.91,0,.63-.3,1.32-.45,2.02-.46,3.26,0,5.91,3.4,5.91,7.59,.03,1.99-.61,3.93-1.83,5.49h-15.13Z"/><path class="e" d="M24.12,40.86v-12.61c0-2.7,2.19-4.89,4.89-4.89h0c2.7,0,4.89,2.19,4.89,4.89h0v12.61"/><line class="e" x1="36.07" y1="36.47" x2="22.03" y2="33.65"/><line class="e" x1="36.07" y1="32.46" x2="22.03" y2="29.64"/><line class="e" x1="36.07" y1="28.45" x2="25.15" y2="26.25"/><path class="e" d="M14.62,19.21c-.67-1.59-1.78-2.96-3.2-3.94"/><path class="e" d="M35.43,8.19c-.67-1.59-1.78-2.96-3.2-3.94"/><path class="e" d="M53.71,19.21c-.67-1.59-1.78-2.96-3.2-3.94"/></g></g></g></svg>