<?xml version="1.0" encoding="UTF-8"?><svg xmlns="http://www.w3.org/2000/svg" viewBox="0 0 59.38 46"><defs><style>.e{fill:none;stroke:#fff;stroke-linecap:round;stroke-linejoin:round;stroke-width:2px;}</style></defs><g id="a"/><g id="b"><g id="c"><g id="d"><path class="e" d="M17.6,9.29h.25c6.54,0,11.84,5.3,11.84,11.84v21.87c0,1.1-.9,2-2,2H7.76c-1.1,0-2-.9-2-2V21.13c0-6.54,5.3-11.84,11.84-11.84h0Z"/><path class="e" d="M41.53,9.29h.25c6.54,0,11.84,5.3,11.84,11.84v21.87c0,1.1-.9,2-2,2H31.69c-1.1,0-2-.9-2-2V21.13c0-6.54,5.3-11.84,11.84-11.84Z"/><path class="e" d="M6.29,17.59H3.73c-1.11,0-2.02-.89-2.02-2.01,0,0,0,0,0-.01V3.02c0-1.11,.89-2.02,2.01-2.02,0,0,0,0,.01,0H55.65c1.11,0,2.02,.89,2.02,2.01,0,0,0,0,0,.01V15.57c0,1.11-.89,2.02-2.01,2.02,0,0,0,0-.01,0h-2.57"/><rect class="e" x="10.35" y="24.09" width="14.74" height="9.68" rx="2" ry="2"/><rect class="e" x="34.28" y="24.09" width="14.74" height="9.68" rx="2" ry="2"/><line class="e" x1="1" y1="28.93" x2="10.35" y2="28.93"/><line class="e" x1="49.02" y1="28.93" x2="58.38" y2="28.93"/><line class="e" x1="25.09" y1="28.93" x2="34.28" y2="28.93"/><line class="e" x1="17.72" y1="27.01" x2="17.72" y2="30.85"/><line class="e" x1="15.76" y1="28.93" x2="19.69" y2="28.93"/><line class="e" x1="41.65" y1="27.09" x2="41.65" y2="30.93"/><line class="e" x1="39.69" y1="29.01" x2="43.62" y2="29.01"/></g></g></g></svg>