<?xml version="1.0" encoding="UTF-8"?><svg xmlns="http://www.w3.org/2000/svg" viewBox="0 0 58 25.22"><defs><style>.e{fill:none;stroke:#fff;stroke-linecap:round;stroke-linejoin:round;stroke-width:2px;}</style></defs><g id="a"/><g id="b"><g id="c"><g id="d"><path class="e" d="M53.81,6.09v7.3c0-3.42-2.78-5.77-6.21-5.77-2.4,0-4.48,.53-5.51,2.03-.16,.24-.42,.38-.71,.37-.27-.01-.51-.15-.66-.37-1.04-1.5-3.12-2.03-5.52-2.03s-4.48,.53-5.51,2.03c-.26,.38-.77,.48-1.15,.22-.09-.06-.16-.13-.22-.22-1.04-1.5-3.12-2.03-5.52-2.03s-4.48,.53-5.51,2.03c-.25,.38-.75,.49-1.13,.24-.1-.06-.18-.14-.24-.24-1.03-1.5-3.12-2.03-5.52-2.03-3.42,0-6.19,2.78-6.19,6.2V6.09c.05-2.86,2.41-5.14,5.27-5.09H48.53c2.86-.05,5.22,2.23,5.28,5.09Z"/><path class="e" d="M16.64,10.03v14.19H4.21V13.83c0-3.42,2.77-6.2,6.19-6.2,2.4,0,4.49,.53,5.52,2.03,.16,.24,.43,.38,.72,.37Z"/><path class="e" d="M29.01,10.02v14.2h-12.37V10.03c.26-.01,.51-.15,.66-.37,1.03-1.5,3.11-2.03,5.51-2.03s4.48,.53,5.52,2.03c.16,.23,.41,.36,.69,.36Z"/><path class="e" d="M41.38,10.03v14.19h-12.37V10.02c.27,0,.53-.14,.68-.36,1.03-1.5,3.11-2.03,5.51-2.03s4.48,.53,5.52,2.03c.15,.22,.4,.36,.66,.37Z"/><path class="e" d="M53.81,13.83v10.39h-12.43V10.03c.28,0,.55-.14,.71-.37,1.03-1.5,3.11-2.03,5.51-2.03,3.43,0,6.2,2.77,6.21,6.2Z"/><rect class="e" x="45.46" y="13.83" width="4.23" height="4.23"/><rect class="e" x="33.08" y="13.83" width="4.23" height="4.23"/><rect class="e" x="20.71" y="13.83" width="4.23" height="4.23"/><rect class="e" x="8.31" y="13.83" width="4.23" height="4.23"/><line class="e" x1="37.31" y1="15.94" x2="45.47" y2="15.94"/><line class="e" x1="12.54" y1="15.94" x2="20.71" y2="15.94"/><line class="e" x1="24.93" y1="15.94" x2="33.08" y2="15.94"/><line class="e" x1="49.69" y1="15.94" x2="57" y2="15.94"/><line class="e" x1="1" y1="15.94" x2="8.31" y2="15.94"/></g></g></g></svg>