<?xml version="1.0" encoding="UTF-8"?><svg xmlns="http://www.w3.org/2000/svg" viewBox="0 0 58.7 58"><defs><style>.e{fill:none;stroke:#fff;stroke-linecap:round;stroke-linejoin:round;stroke-width:2px;}</style></defs><g id="a"/><g id="b"><g id="c"><g id="d"><path class="e" d="M17.47,8.02c2.45-4.11,6.54-7.02,10.96-7.02,2.04,0,4.04,.57,5.78,1.62,1.32,.77,2.95,.77,4.27,0,1.74-1.05,3.74-1.61,5.78-1.62,7.42,0,13.44,7.48,13.44,16.71,.07,4.4-1.4,8.68-4.17,12.1-1.44,1.67-2.12,3.87-1.89,6.06,.18,1.58,.27,3.17,.27,4.76,0,9.04-2.77,16.37-6.18,16.37s-5.96-6.78-6.16-15.36c-.05-1.91-1.64-3.41-3.55-3.36-1.83,.05-3.31,1.53-3.36,3.36-.21,8.58-2.89,15.36-6.17,15.36-2.95,0-5.42-5.51-6.02-12.86"/><path class="e" d="M19.24,44.98C11,39.72,3.31,27.65,1,11.02c5.64-.31,12.46-1.2,18.57-3.81,5.72,2.25,11.78,3.53,17.92,3.78-2.31,16.65-10,28.74-18.25,34Z"/><path class="e" d="M52.12,14.04c-1.13-2.75-3.02-5.13-5.46-6.84"/></g></g></g></svg>