<?xml version="1.0" encoding="UTF-8"?><svg xmlns="http://www.w3.org/2000/svg" viewBox="0 0 57.96 58"><defs><style>.e{fill:none;stroke:#fff;stroke-linecap:round;stroke-linejoin:round;stroke-width:2px;}</style></defs><g id="a"/><g id="b"><g id="c"><g id="d"><path class="e" d="M27.01,24.43c.05-1.12,1-1.99,2.12-1.94,1.05,.05,1.89,.89,1.94,1.94,.12,4.95,1.7,8.86,3.62,8.86s3.62-4.22,3.62-9.44c0-.92-.05-1.84-.16-2.75-.14-1.27,.27-2.53,1.11-3.49,1.62-1.96,2.48-4.44,2.44-6.98,0-5.33-3.53-9.64-7.88-9.64-.93,0-1.85,.2-2.7,.58-1.24,.55-2.65,.55-3.89,0-.85-.38-1.77-.58-2.7-.58-4.35,0-7.88,4.31-7.88,9.64-.03,2.45,.77,4.85,2.28,6.78,.8,.95,1.17,2.19,1.03,3.42-.13,1-.19,2-.19,3.01,0,5.21,1.62,9.44,3.62,9.44,1.92,0,3.5-3.91,3.62-8.86Z"/><path class="e" d="M37.41,9.69c-.67-1.59-1.78-2.96-3.2-3.94"/><path class="e" d="M17.59,44.86l-10.37-11.58v-14.45c-.01-1.7-1.41-3.07-3.11-3.06h0c-1.7-.01-3.1,1.35-3.11,3.06v13.46c0,.65,.16,1.29,.47,1.86l7.94,14.64c.54,1,.83,2.12,.83,3.26v2.96c0,1.1,.91,1.99,2.01,1.98h8.7c1.1,0,2-.88,2.01-1.98v-12.5c0-1.05-.43-2.06-1.18-2.8l-8.45-8.31c-1.14-1.11-2.95-1.12-4.1-.03h0c-1.12,1.06-1.2,2.82-.16,3.97l8.52,9.52Z"/><path class="e" d="M40.37,44.86l10.37-11.58v-14.45c.01-1.7,1.41-3.07,3.11-3.06h0c1.7-.01,3.1,1.35,3.11,3.06v13.46c0,.65-.16,1.29-.47,1.86l-7.94,14.64c-.54,1-.83,2.12-.83,3.26v2.96c0,1.1-.91,1.99-2.01,1.98h-8.7c-1.1,0-2-.88-2.01-1.98v-12.5c0-1.05,.43-2.06,1.18-2.8l8.45-8.31c1.14-1.11,2.95-1.12,4.1-.03h0c1.12,1.06,1.2,2.82,.16,3.97l-8.52,9.52Z"/></g></g></g></svg>