<?xml version="1.0" encoding="UTF-8"?><svg xmlns="http://www.w3.org/2000/svg" viewBox="0 0 43.35 58"><defs><style>.e{fill:none;stroke:#fff;stroke-linecap:round;stroke-linejoin:round;stroke-width:2px;}</style></defs><g id="a"/><g id="b"><g id="c"><g id="d"><path class="e" d="M36.16,3.48c-7.65,2.73-11.64,11.15-8.91,18.79,1.63,4.58,5.43,8.05,10.13,9.28-.49,1.22-.66,2.54-.51,3.84,.21,1.73,.31,3.48,.31,5.23,0,9.04-2.68,16.37-5.98,16.37s-5.77-6.77-5.97-15.36c.01-1.85-1.48-3.36-3.33-3.37s-3.36,1.48-3.37,3.33c0,.01,0,.03,0,.04-.19,8.58-2.79,15.36-5.97,15.36s-5.98-7.33-5.98-16.37c0-1.59,.08-3.18,.25-4.77,.23-2.18-.43-4.36-1.83-6.04-2.69-3.46-4.11-7.73-4.03-12.11,0-9.24,5.82-16.71,13.01-16.71,1.54,0,3.06,.34,4.45,1,2.03,.95,4.38,.95,6.41,0,1.39-.66,2.92-1,4.46-1,2.49,.02,4.9,.9,6.82,2.48Z"/><path class="e" d="M39.4,28.31c1.97-3.18,2.99-6.86,2.95-10.6,.05-4.01-1.14-7.95-3.41-11.26-4.57,2.09-7.68,6.15-7.68,10.83s3.31,9.01,8.14,11.03Z"/><path class="e" d="M7.28,13.29c1.13-2.75,3.02-5.13,5.46-6.84"/></g></g></g></svg>