<?xml version="1.0" encoding="UTF-8"?><svg xmlns="http://www.w3.org/2000/svg" viewBox="0 0 46.37 58"><defs><style>.e,.f{fill:none;stroke:#fff;stroke-linecap:round;stroke-linejoin:round;stroke-width:2px;}.f{stroke-dasharray:0 0 10.45 6.27;}</style></defs><g id="a"/><g id="b"><g id="c"><g id="d"><path class="e" d="M24.22,50.45c-.58-1.57-.99-3.19-1.24-4.84-.25,1.65-.67,3.27-1.24,4.84"/><path class="f" d="M18.29,55.61c-1.04,.88-2.36,1.37-3.72,1.39-4.43,0-8.9-5.51-8.9-17.82,0-1.68,.1-3.35,.31-5.01,.09-.93-.2-1.85-.8-2.57-2.76-3.57-4.23-7.96-4.17-12.47C1,9.13,7.85,1,16.26,1c1.89,0,3.75,.41,5.47,1.19,.93,.42,1.99,.42,2.91,0,1.72-.78,3.58-1.19,5.47-1.19,8.41,0,15.26,8.13,15.26,18.12,.07,4.68-1.51,9.22-4.47,12.85-.64,.72-.95,1.68-.85,2.64,.17,1.52,.26,3.04,.26,4.57,0,12.31-4.47,17.82-8.9,17.82-1.96,0-4.1-1.1-5.8-3.75"/><path class="e" d="M19.96,40.06c.04-1.67,1.43-2.99,3.1-2.94,1.61,.04,2.9,1.34,2.94,2.94,.18,7.51,2.53,13.44,5.39,13.44s5.4-6.41,5.4-14.32c0-1.39-.08-2.79-.23-4.17-.2-1.92,.4-3.83,1.65-5.29,2.42-2.99,3.71-6.74,3.65-10.59,0-8.08-5.26-14.62-11.76-14.62-1.39,0-2.76,.3-4.02,.88-1.84,.84-3.96,.84-5.8,0-1.26-.58-2.63-.88-4.02-.88-6.49,0-11.76,6.54-11.76,14.62-.05,3.72,1.15,7.34,3.41,10.29,1.19,1.45,1.75,3.33,1.53,5.19-.19,1.52-.28,3.04-.28,4.57,0,7.91,2.42,14.32,5.4,14.32,2.86,0,5.22-5.93,5.39-13.44Z"/><path class="e" d="M36.84,15.39c-.99-2.41-2.65-4.49-4.78-5.98"/></g></g></g></svg>