<?xml version="1.0" encoding="UTF-8"?><svg xmlns="http://www.w3.org/2000/svg" viewBox="0 0 58 49.59"><defs><style>.e{fill:none;stroke:#fff;stroke-linecap:round;stroke-linejoin:round;stroke-width:2px;}</style></defs><g id="a"/><g id="b"><g id="c"><g id="d"><path class="e" d="M23.99,34.86c.06-1.48,1.32-2.64,2.8-2.57,1.4,.06,2.51,1.18,2.57,2.57,.16,6.56,2.25,11.75,4.8,11.75s4.8-5.61,4.8-12.53c0-1.22-.07-2.44-.21-3.65-.18-1.68,.35-3.36,1.47-4.63,2.14-2.6,3.29-5.89,3.24-9.26,0-7.07-4.68-12.79-10.46-12.79-1.23,0-2.45,.26-3.58,.77-1.64,.73-3.52,.73-5.16,0-1.12-.5-2.34-.77-3.58-.77-5.77,0-10.46,5.72-10.46,12.79-.04,3.26,1.02,6.43,3.03,9,1.06,1.26,1.55,2.9,1.36,4.54-.17,1.33-.25,2.66-.25,4,0,6.92,2.15,12.53,4.8,12.53,2.55,0,4.64-5.19,4.8-11.75Z"/><path class="e" d="M1,48.59c3.05-3.19,8.21-5.91,14.06-8.17,2.81-1.09,5.78-2.07,8.75-2.94,1.88-.57,3.76-1.08,5.6-1.55,3.43-.88,6.7-1.61,9.56-2.19,3.6-.75,6.55-1.27,8.29-1.55,.96-.15,1.66-.98,1.67-1.95v-.08c-.04-.96-.77-1.76-1.72-1.88l-7.87-1.1"/><path class="e" d="M11.83,23.31l-6.43-.9c-.64-.08-1.22-.4-1.65-.88-.43-.47-.66-1.09-.66-1.73,.01-1.46,1.19-2.63,2.65-2.64,1.55-.01,3.06-.04,4.51-.08,15.24-.43,25.62-2.24,32.66-4.65,9.89-3.38,13.17-7.92,14.09-11.44"/></g></g></g></svg>