<?xml version="1.0" encoding="UTF-8"?><svg xmlns="http://www.w3.org/2000/svg" viewBox="0 0 41.94 58.1"><defs><style>.e{fill:none;stroke:#fff;stroke-linecap:round;stroke-linejoin:round;stroke-width:2px;}</style></defs><g id="a"/><g id="b"><g id="c"><g id="d"><path class="e" d="M37.05,30.84c-1.35,1.63-1.99,3.73-1.77,5.84,.17,1.53,.25,3.07,.25,4.61,0,8.73-2.6,15.81-5.78,15.81s-5.57-6.55-5.76-14.83c.01-1.79-1.43-3.24-3.21-3.25-1.79-.01-3.24,1.43-3.25,3.21,0,.01,0,.03,0,.04-.19,8.29-2.71,14.83-5.77,14.83s-5.77-7.08-5.77-15.81c0-1.69,.1-3.37,.3-5.05,.23-2.05-.36-4.11-1.64-5.73-2.43-3.28-3.71-7.28-3.64-11.36C1,13.08,3.61,7.79,7.46,5.03c1.12,7.46,8.08,12.6,15.54,11.48,5.93-.89,10.59-5.55,11.48-11.49,3.85,2.76,6.46,8.05,6.46,14.12,.07,4.23-1.3,8.35-3.89,11.69Z"/><path class="e" d="M31.63,1.55c-.3,5.89-5.32,10.41-11.2,10.11-5.46-.28-9.83-4.65-10.11-10.11,1.05-.36,2.15-.55,3.25-.55,1.49,0,2.96,.33,4.3,.97,1.96,.92,4.23,.92,6.2,0,1.35-.64,2.81-.97,4.3-.97,1.11,0,2.21,.19,3.25,.55Z"/></g></g></g></svg>