<?xml version="1.0" encoding="UTF-8"?><svg xmlns="http://www.w3.org/2000/svg" viewBox="0 0 58 51.96"><defs><style>.e{fill:none;stroke:#fff;stroke-linecap:round;stroke-linejoin:round;stroke-width:2px;}</style></defs><g id="a"/><g id="b"><g id="c"><g id="d"><path class="e" d="M30.64,25.06c-.02-.88-.75-1.57-1.63-1.55-.84,.02-1.52,.7-1.55,1.55-.09,3.95-1.33,7.06-2.84,7.06s-2.84-3.37-2.84-7.53c0-.73,.04-1.46,.12-2.19,.11-1.01-.21-2.02-.87-2.78-1.27-1.57-1.95-3.54-1.92-5.57,0-4.25,2.77-7.69,6.18-7.69,.73,0,1.45,.16,2.11,.46,.97,.44,2.08,.44,3.05,0,.66-.3,1.38-.46,2.11-.46,3.41,0,6.18,3.44,6.18,7.69,.03,1.95-.6,3.86-1.79,5.41-.63,.76-.92,1.75-.81,2.73,.1,.8,.15,1.6,.15,2.4,0,4.16-1.27,7.53-2.84,7.53s-2.74-3.12-2.84-7.06Z"/><path class="e" d="M1,31.18c1-1.88,1.51-3.98,1.46-6.11,.02-.88,.75-1.57,1.63-1.55,.85,.02,1.53,.7,1.55,1.55,.09,3.94,1.32,7.06,2.83,7.06s2.84-3.37,2.84-7.53c0-.8-.05-1.6-.15-2.4-.11-.98,.18-1.97,.81-2.73,1.19-1.55,1.82-3.46,1.79-5.41,0-4.25-2.77-7.69-6.18-7.69-.73,0-1.45,.16-2.12,.46-.97,.44-2.08,.44-3.05,0-.45-.2-.92-.34-1.41-.4"/><path class="e" d="M57,30.73c-.8-1.78-1.21-3.71-1.19-5.66-.02-.88-.75-1.57-1.63-1.55-.85,.02-1.53,.7-1.55,1.55-.1,3.94-1.33,7.06-2.84,7.06s-2.84-3.37-2.84-7.53c0-.73,.04-1.46,.12-2.19,.11-1.01-.2-2.01-.86-2.78-1.27-1.57-1.95-3.55-1.92-5.57,0-4.25,2.76-7.69,6.18-7.69,.73,0,1.45,.16,2.12,.46,.97,.44,2.07,.44,3.04,0,.44-.2,.9-.33,1.37-.4"/><rect class="e" x="1" y="1" width="56" height="49.96" rx="2" ry="2"/><line class="e" x1="57" y1="35.34" x2="1" y2="35.34"/><ellipse class="e" cx="48.79" cy="43.43" rx="2.74" ry="2.85"/><ellipse class="e" cx="38.33" cy="43.43" rx="2.74" ry="2.85"/><line class="e" x1="28.94" y1="43.43" x2="19.89" y2="43.43"/><line class="e" x1="14.86" y1="43.43" x2="5.82" y2="43.43"/></g></g></g></svg>