<?xml version="1.0" encoding="UTF-8"?><svg xmlns="http://www.w3.org/2000/svg" viewBox="0 0 223.62 223.62"><defs><style>.d{fill:#fff;}</style></defs><g id="a"/><g id="b"><g id="c"><g transform="translate(128 128) scale(0.72 0.72)"><g transform="translate(-175.05 -175.05000000000004) scale(3.89 3.89)"><path class="d" d="M96.38,127.24l27.02,27.02c2.42,2.42,6.14,2.97,9.15,1.35l32.38-17.38c2.4-1.29,5.29-1.22,7.63,.16l47.25,28.04c3.37,2,4.73,6.18,3.15,9.77-4.04,9.19-11.39,26.03-14.31,33.48-.61,1.57-1.53,3-2.8,4.1-31.49,27.3-94.14-5.96-142.1-53.92C15.8,111.91-17.46,49.25,9.83,17.76c1.1-1.27,2.54-2.19,4.1-2.8C21.38,12.04,38.23,4.69,47.41,.66c3.59-1.58,7.77-.22,9.77,3.15l28.04,47.25c1.39,2.34,1.45,5.23,.16,7.63l-17.38,32.38c-1.62,3.01-1.07,6.73,1.35,9.15l27.02,27.02Z"/><path class="d" d="M223.62,122.99h-22.36c0-55.49-45.14-100.63-100.63-100.63V0c67.82,0,122.99,55.17,122.99,122.99Z"/><path class="d" d="M180.14,122.99h-22.36c0-31.51-25.63-57.15-57.15-57.15v-22.36c43.84,0,79.51,35.67,79.51,79.51Z"/></g></g></g></g></svg>