<?xml version="1.0" encoding="UTF-8"?><svg xmlns="http://www.w3.org/2000/svg" viewBox="0 0 225.44 226.38"><defs><style>.d{fill:#fff;}</style></defs><g id="a"/><g id="b"><g id="c"><g transform="translate(128 128) scale(0.72 0.72)"><g transform="translate(-175.05 -175.05000000000004) scale(3.89 3.89)"><path class="d" d="M7.55,226.38c-1.99,0-3.93-.79-5.37-2.24-1.9-1.92-2.63-4.7-1.91-7.3l14.04-51.27C5.53,149.29,.9,130.97,.88,112.38v-.14C.9,50.35,51.27,0,113.16,0c30.02,.01,58.22,11.7,79.42,32.92,21.2,21.22,32.87,49.42,32.86,79.41-.03,61.89-50.39,112.24-112.28,112.24-17.75,0-35.31-4.23-51.02-12.25l-52.68,13.81c-.63,.17-1.28,.25-1.91,.25Zm55.52-29.65c1.25,0,2.5,.31,3.61,.92,14.18,7.73,30.23,11.82,46.44,11.82,53.61,0,97.21-43.58,97.23-97.16,.01-25.96-10.09-50.37-28.44-68.74-18.35-18.36-42.76-28.48-68.75-28.49C59.64,15.09,16.06,58.6,15.97,112.11v.13c0,17.06,4.48,33.86,12.97,48.57,1.01,1.75,1.28,3.82,.74,5.77l-11.4,41.64,42.88-11.24c.63-.16,1.27-.24,1.91-.24Z"/><path class="d" d="M86.99,68.47c-1.96-4.36-4.02-4.44-5.89-4.52-1.53-.07-3.27-.06-5.02-.06s-4.58,.65-6.98,3.27c-2.4,2.62-9.16,8.95-9.16,21.82s9.38,25.32,10.69,27.07c1.31,1.75,18.11,29.01,44.7,39.5,22.11,8.72,26.61,6.98,31.4,6.55,4.8-.44,15.48-6.33,17.66-12.44,2.18-6.11,2.18-11.35,1.53-12.44-.65-1.09-2.4-1.75-5.02-3.05-2.62-1.31-15.48-7.64-17.88-8.51-2.4-.87-4.15-1.31-5.89,1.31-1.75,2.62-6.76,8.51-8.28,10.26-1.53,1.75-3.05,1.97-5.67,.66-2.62-1.31-11.05-4.07-21.05-12.99-7.78-6.94-13.03-15.5-14.56-18.12-1.53-2.62-.16-4.03,1.15-5.34,1.17-1.17,2.62-3.06,3.93-4.58,1.31-1.53,1.74-2.62,2.61-4.36s.44-3.28-.22-4.58c-.66-1.31-5.74-14.25-8.07-19.42"/></g></g></g></g></svg>